<svg width="100%" viewBox="0 0 1500 1000" version="1.1" xmlns="http://www.w3.org/2000/svg"><style>
  .frame {fill: rgb(0,20,40)}
  .lcdisplay rect {fill: rgb(120,140,120)}
  .fg-btn {font-family: sans-serif; fill:white;}
  .fg-btn rect {fill: black; stroke: gold;}
  .fg-btn text.ftext {font-size: 18px;stroke:orange;}
  .fg-btn text.mtext {font-size: 22px;stroke:white;}
  .fg-btn text.gtext {font-size: 20px;stroke:dodgerblue;}
  .sh-btn {font-family: sans-serif; fill:navy;}
  .sh-btn text {font-size: 32px;fill: black; stroke: navy;}
  .sh-btn rect.f-btn {fill: orange; stroke: white;}
  .sh-btn rect.g-btn {fill: dodgerblue; stroke: white;}
  text.ntext {font: 90px monospace; fill:dimgray; stroke:black;}
  text.stext {font: 30px monospace; fill:black; stroke:black;}
  text.sstext {font: 18px monospace; fill:black; stroke:black;}
  </style><rect width="100%" height="100%" class="frame"></rect><g class="lcdisplay"><rect x="50" y="10" width="1300" height="100"></rect><text x="55" y="80" class="ntext">2.718281828</text><text x="1290" y="40" class="stext">g</text><text x="1270" y="40" class="sstext"></text><text x="1270" y="85" class="sstext"></text><text x="1270" y="105" class="sstext">RPN</text></g><g><g class="fg-btn"><text x="45" y="140" class="ftext">AMORT</text><rect x="30" y="150" width="90" height="80"></rect><text x="65" y="190" class="mtext">n</text><text x="55" y="225" class="gtext">12x</text></g><g class="fg-btn"><text x="205" y="140" class="ftext">INT</text><rect x="180" y="150" width="90" height="80"></rect><text x="215" y="190" class="mtext">i</text><text x="205" y="225" class="gtext">12÷</text></g><g class="fg-btn"><text x="355" y="140" class="ftext">NPV</text><rect x="330" y="150" width="90" height="80"></rect><text x="360" y="190" class="mtext">PV</text><text x="355" y="225" class="gtext">CFo</text></g><g class="fg-btn"><text x="505" y="140" class="ftext">RND</text><rect x="480" y="150" width="90" height="80"></rect><text x="505" y="190" class="mtext">PMT</text><text x="505" y="225" class="gtext">CFj</text></g><g class="fg-btn"><text x="655" y="140" class="ftext">IRR</text><rect x="630" y="150" width="90" height="80"></rect><text x="660" y="190" class="mtext">FV</text><text x="660" y="225" class="gtext">Nj</text></g><g class="fg-btn"><text x="805" y="140" class="ftext">RPN</text><rect x="780" y="150" width="90" height="80"></rect><text x="805" y="190" class="mtext">CHS</text><text x="800" y="225" class="gtext">DATE</text></g><g class="fg-btn"><text x="970" y="140" class="ftext"></text><rect x="930" y="150" width="90" height="80"></rect><text x="965" y="190" class="mtext">7</text><text x="955" y="225" class="gtext">BEG</text></g><g class="fg-btn"><text x="1120" y="140" class="ftext"></text><rect x="1080" y="150" width="90" height="80"></rect><text x="1115" y="190" class="mtext">8</text><text x="1105" y="225" class="gtext">END</text></g><g class="fg-btn"><text x="1270" y="140" class="ftext"></text><rect x="1230" y="150" width="90" height="80"></rect><text x="1265" y="190" class="mtext">9</text><text x="1255" y="225" class="gtext">MEM</text></g><g class="fg-btn"><text x="1420" y="140" class="ftext"></text><rect x="1380" y="150" width="90" height="80"></rect><text x="1415" y="190" class="mtext">÷</text><text x="1415" y="225" class="gtext">⤶</text></g><g class="fg-btn"><text x="45" y="275" class="ftext">PRICE</text><rect x="30" y="285" width="90" height="80"></rect><text x="60" y="325" class="mtext">yˣ</text><text x="60" y="360" class="gtext">√x</text></g><g class="fg-btn"><text x="205" y="275" class="ftext">YTM</text><rect x="180" y="285" width="90" height="80"></rect><text x="205" y="325" class="mtext">1/x</text><text x="210" y="360" class="gtext">eˣ</text></g><g class="fg-btn"><text x="360" y="275" class="ftext">SL</text><rect x="330" y="285" width="90" height="80"></rect><text x="360" y="325" class="mtext">%T</text><text x="360" y="360" class="gtext">LN</text></g><g class="fg-btn"><text x="500" y="275" class="ftext">SOYD</text><rect x="480" y="285" width="90" height="80"></rect><text x="510" y="325" class="mtext">Δ%</text><text x="500" y="360" class="gtext">FRAC</text></g><g class="fg-btn"><text x="660" y="275" class="ftext">DB</text><rect x="630" y="285" width="90" height="80"></rect><text x="665" y="325" class="mtext">%</text><text x="650" y="360" class="gtext">INTG</text></g><g class="fg-btn"><text x="805" y="275" class="ftext">ALG</text><rect x="780" y="285" width="90" height="80"></rect><text x="805" y="325" class="mtext">EEX</text><text x="800" y="360" class="gtext">ΔDYS</text></g><g class="fg-btn"><text x="970" y="275" class="ftext"></text><rect x="930" y="285" width="90" height="80"></rect><text x="965" y="325" class="mtext">4</text><text x="950" y="360" class="gtext">D.MY</text></g><g class="fg-btn"><text x="1120" y="275" class="ftext"></text><rect x="1080" y="285" width="90" height="80"></rect><text x="1115" y="325" class="mtext">5</text><text x="1100" y="360" class="gtext">M.DY</text></g><g class="fg-btn"><text x="1270" y="275" class="ftext"></text><rect x="1230" y="285" width="90" height="80"></rect><text x="1265" y="325" class="mtext">6</text><text x="1255" y="360" class="gtext">x̄w</text></g><g class="fg-btn"><text x="1420" y="275" class="ftext"></text><rect x="1380" y="285" width="90" height="80"></rect><text x="1415" y="325" class="mtext">x</text><text x="1410" y="360" class="gtext">x²</text></g><g class="fg-btn"><text x="55" y="410" class="ftext">P/R</text><rect x="30" y="420" width="90" height="80"></rect><text x="55" y="460" class="mtext">R/S</text><text x="55" y="495" class="gtext">PSE</text></g><g class="fg-btn"><text x="215" y="410" class="ftext">Σ</text><rect x="180" y="420" width="90" height="80"></rect><text x="205" y="460" class="mtext">SST</text><text x="205" y="495" class="gtext">BST</text></g><g class="fg-btn"><text x="350" y="410" class="ftext">PRGM</text><rect x="330" y="420" width="90" height="80"></rect><text x="360" y="460" class="mtext">R↓</text><text x="355" y="495" class="gtext">GTO</text></g><g class="fg-btn"><text x="505" y="410" class="ftext">FIN</text><rect x="480" y="420" width="90" height="80"></rect><text x="505" y="460" class="mtext">x≷y</text><text x="505" y="495" class="gtext">x≤y</text></g><g class="fg-btn"><text x="655" y="410" class="ftext">REG</text><rect x="630" y="420" width="90" height="80"></rect><text x="655" y="460" class="mtext">CLx</text><text x="655" y="495" class="gtext">x=0</text></g><g class="fg-btn"><text x="790" y="410" class="ftext">PREFIX</text><rect x="780" y="420" width="90" height="220"></rect><text x="810" y="460" class="mtext">EN</text><text x="815" y="635" class="gtext">=</text></g><g class="fg-btn"><text x="970" y="410" class="ftext"></text><rect x="930" y="420" width="90" height="80"></rect><text x="965" y="460" class="mtext">1</text><text x="950" y="495" class="gtext">x̂,r</text></g><g class="fg-btn"><text x="1120" y="410" class="ftext"></text><rect x="1080" y="420" width="90" height="80"></rect><text x="1115" y="460" class="mtext">2</text><text x="1105" y="495" class="gtext">ŷ,r</text></g><g class="fg-btn"><text x="1270" y="410" class="ftext"></text><rect x="1230" y="420" width="90" height="80"></rect><text x="1265" y="460" class="mtext">3</text><text x="1260" y="495" class="gtext">n!</text></g><g class="fg-btn"><text x="1420" y="410" class="ftext"></text><rect x="1380" y="420" width="90" height="80"></rect><text x="1415" y="460" class="mtext">-</text><text x="1415" y="495" class="gtext">←</text></g><g class="fg-btn"><text x="55" y="545" class="ftext">OFF</text><rect x="30" y="555" width="90" height="80"></rect><text x="60" y="595" class="mtext">ON</text><text x="70" y="630" class="gtext"></text></g><g class="sh-btn"><rect x="180" y="555" width="90" height="80" class="f-btn"></rect><text x="215" y="605">f</text></g><g class="sh-btn"><rect x="330" y="555" width="90" height="80" class="g-btn"></rect><text x="365" y="605">g</text></g><g class="fg-btn"><text x="520" y="545" class="ftext"></text><rect x="480" y="555" width="90" height="80"></rect><text x="505" y="595" class="mtext">STO</text><text x="515" y="630" class="gtext">(</text></g><g class="fg-btn"><text x="670" y="545" class="ftext"></text><rect x="630" y="555" width="90" height="80"></rect><text x="655" y="595" class="mtext">RCL</text><text x="665" y="630" class="gtext">)</text></g><g></g><g class="fg-btn"><text x="970" y="545" class="ftext"></text><rect x="930" y="555" width="90" height="80"></rect><text x="965" y="595" class="mtext">0</text><text x="960" y="630" class="gtext">x̄</text></g><g class="fg-btn"><text x="1120" y="545" class="ftext"></text><rect x="1080" y="555" width="90" height="80"></rect><text x="1115" y="595" class="mtext">.</text><text x="1115" y="630" class="gtext">S</text></g><g class="fg-btn"><text x="1270" y="545" class="ftext"></text><rect x="1230" y="555" width="90" height="80"></rect><text x="1260" y="595" class="mtext">Σ+</text><text x="1260" y="630" class="gtext">Σ-</text></g><g class="fg-btn"><text x="1420" y="545" class="ftext"></text><rect x="1380" y="555" width="90" height="80"></rect><text x="1415" y="595" class="mtext">+</text><text x="1400" y="630" class="gtext">LSTx</text></g></g></svg>